<svg xmlns="http://www.w3.org/2000/svg" xml:space="preserve" width="128" height="128" data-id="lg_UXikbqwsQni3HBO4cy" data-version="1" viewBox="0 0 128 128"><g data-padding="20"><g transform="translate(54.032 53.45)scale(.17797)"><rect width="586.866" height="402.28" x="-529.215" y="-340.931" fill="none" rx="0" ry="0" transform="matrix(.95 0 0 .95 280 192.08)"/><path fill="#ff4136" d="M-144.09 168.823q-12.55.162-24.52-3.714-11.98-3.886-18.25-10.982 2.802-13.376 4.95-21.964t4.208-14.943q2.07-6.356 4.38-12.797-2.309-4.788-4.874-18.411-2.556-13.632-5.12-32.29-2.556-18.66-4.789-38.561-2.223-19.893-3.96-37.401-1.73-17.5-2.48-29.147-.742-11.637-.409-13.13 7.6-10.24 20.15-16.348t26.666-6.194q14.116-.076 26.172 8.18L-137.65 3.19l4.787 2.309 44.09-92.806q2.641-.826 8.503-1.73 5.861-.911 12.967-1.072 6.27-.171 16.426 2.308 10.164 2.48 21.47 7.762 11.314 5.282 21.222 13.708.333 15.523-1.32 34.513T-14.71 7.238q-3.544 20.064-9.329 38.893-5.12 7.59-11.476 14.364-6.356 6.773-13.623 12.882 4.294 7.923 9.576 16.264t12.388 15.438q5.614-1.976 11.314-5.776 5.691-3.8 11.305-8.427l18.83 16.844q-.494 13.053-5.947 25.764-5.444 12.72-11.23 20.643-10.563 14.697-29.886 14.697-8.92 0-20.15-3.63-9.908-3.144-16.178-12.473-6.28-9.33-9.994-21.384-3.715-12.056-5.453-23.617-1.73-11.552-2.556-18.991l-44.26-5.937q2.48 5.937 4.873 15.684t4.38 21.223q1.976 11.476 3.467 22.373 1.482 10.896 2.147 18.99-5.453 3.8-12.635 5.7t-14.943 2.06m15.523-114.273 52.183-3.63q2.147-14.201 3.22-28.49Q-72.09 8.152-72.09-3.903t-.826-19.323l-7.762-1.321q-4.294 6.603-11.067 17.252-6.764 10.65-14.032 22.544t-13.46 22.372q-6.195 10.488-9.33 16.929m193.05 114.274q-13.87-.332-25.84-7.43-11.97-7.105-16.758-19.322l7.428-26.913 18.326 1.482v-1.482l11.4-143.668-27.91-8.427q1.158-14.858 7.352-29.725 6.183-14.859 23.53-23.619 5.776.665 16.758 3.553t23.95 7.429q12.958 4.54 25.26 10.24t20.891 12.303L177.275 73.71l1.32-.171 4.294-36.328q2.147-12.217 4.541-25.593t4.627-25.11q2.223-11.722 3.714-19.151-4.626-1.985-8.835-3.961-4.218-1.986-7.353-3.8 1.321-14.858 10.08-29.061 8.75-14.202 25.431-20.814 6.603.997 17.993 5.29 11.4 4.295 24.026 10.48 12.635 6.194 23.455 12.967 10.811 6.774 16.264 12.55-.494 12.217-1.406 31.378-.902 19.152-2.555 41.857-1.653 22.715-4.38 46.16-2.726 23.447-6.688 44.423l30.714-4.456 5.291 27.408q-1.32 1.985-4.047 6.935-2.726 4.959-7.6 10.573t-12.302 9.576-18.003 3.962q-14.525 0-26-8.01-11.487-8.007-13.463-24.024-.988-7.762-1.814-22.382-.827-14.611-1.653-30.467-.988-19.484-1.406-40.536-.409-21.062-.333-39.881.086-18.83.418-31.38l-3.135-.493-32.043 140.534q5.291 11.39 7.685 23.113 2.394 11.733 4.541 24.444-6.44 4.626-14.953 6.773-8.502 2.147-17.746 2.147-12.388 0-24.196-3.638-11.809-3.63-19.238-9.738 0-3.467.494-10.66.494-7.181 1.986-14.695 1.482-7.515 4.294-11.638L91.566-28.51l-3.135 1.149q.988 4.959 2.973 17.84 1.976 12.874 4.37 30.382t4.541 36.575q2.147 19.076 3.724 36.66 1.568 17.595 1.73 30.467.161 11.894-3.383 21.964-3.553 10.08-11.894 16.188t-22.866 6.109h-.998Z"/></g><path fill="transparent" stroke="transparent" stroke-width=".185" d="M12.5 28.744h103v70.512h-103z"/></g></svg>